<svg width="40" height="40" viewBox="0 0 40 40" fill="none" xmlns="http://www.w3.org/2000/svg">
<g clip-path="url(#clip0_0_78)">
<path d="M39.5 20C39.5 30.7696 30.7696 39.5 20 39.5C9.23045 39.5 0.5 30.7696 0.5 20C0.5 9.23045 9.23045 0.5 20 0.5C30.7696 0.5 39.5 9.23045 39.5 20Z" stroke="black"/>
<path d="M6.5 6.5H33.5V33.5H6.5V6.5Z" stroke="black"/>
<mask id="path-3-inside-1_0_78" fill="white">
<path fill-rule="evenodd" clip-rule="evenodd" d="M33.9275 6.07031L19.9989 33.9275L6.07031 6.07031"/>
</mask>
<path d="M19.9989 33.9275L19.1045 34.3747L19.9989 36.1635L20.8933 34.3747L19.9989 33.9275ZM33.033 5.6231L19.1045 33.4802L20.8933 34.3747L34.8219 6.51753L33.033 5.6231ZM20.8933 33.4802L6.96474 5.6231L5.17589 6.51753L19.1045 34.3747L20.8933 33.4802Z" fill="black" mask="url(#path-3-inside-1_0_78)"/>
</g>
<defs>
<clipPath id="clip0_0_78">
<rect width="40" height="40" fill="white"/>
</clipPath>
</defs>
</svg>
